# xmcd
#
# Track frame offsets:
#	180
#	13572
#	26157
#	38170
#	50762
#	63589
#	77192
#	88670
#	100584
#	113493
#	126239
#	137174
#	150675
#	163293
#	174628
#	187729
#
# Disc length: 2674 seconds
#
# Revision: 1
# Processed by: cddbd v1.5.2PL0 Copyright (c) Steve Scherf et al.
# Submitted via: audiograbber 1.83.01
#
DISCID=d20a7010
DTITLE=Various Artist - Sabor Costeno (Vol. 2)
DYEAR=1996
DGENRE=Latina
TTITLE0=Las Quatro Fiestas
TTITLE1=La Boquillera
TTITLE2=La Mafafa
TTITLE3=Cogeme La Cana
TTITLE4=Bombo Y Maracas
TTITLE5=Cumbia Cienaguera
TTITLE6=Baranoa
TTITLE7=Majagual
TTITLE8=Noche de Estrellas
TTITLE9=El Aguacato
TTITLE10=Roberto Ruiz
TTITLE11=Pueblito Viejo
TTITLE12=Gaita Sabanera
TTITLE13=La Olla
TTITLE14=El Tirabuzon
TTITLE15=Se Salio el Toro
EXTD=
EXTT0=
EXTT1=
EXTT2=
EXTT3=
EXTT4=
EXTT5=
EXTT6=
EXTT7=
EXTT8=
EXTT9=
EXTT10=
EXTT11=
EXTT12=
EXTT13=
EXTT14=
EXTT15=
PLAYORDER=
